<svg xmlns="http://www.w3.org/2000/svg" viewBox="0 0 500 240" role="img" aria-label="AFI — AI Gateway">
  <defs>
    <linearGradient id="bg" x1="24" y1="16" x2="200" y2="224" gradientUnits="userSpaceOnUse">
      <stop offset="0%" stop-color="#1c222b"/>
      <stop offset="100%" stop-color="#0b0f14"/>
    </linearGradient>
  </defs>
  <!-- Light panel + dark border so wordmark stays readable on GitHub light/dark -->
  <rect x="2" y="2" width="496" height="236" rx="28" fill="#ffffff" stroke="#111111" stroke-width="4"/>
  <g transform="translate(8 16) scale(0.40625)">
    <rect width="512" height="512" rx="112" fill="url(#bg)"/>
    <path
      fill="#f4f7fb"
      d="M256 102c9.4 0 17.9 5.3 22.1 13.7l114 228c7 14-3.2 30.3-18.7 30.3h-50.8c-7.5 0-14.3-4.3-17.6-11.1L256 236.8l-49 126.1c-3.3 6.8-10.1 11.1-17.6 11.1H138.6c-15.5 0-25.7-16.3-18.7-30.3l114-228C238.1 107.3 246.6 102 256 102z"
    />
    <rect x="168" y="290" width="176" height="38" rx="11" fill="#5eead4"/>
  </g>
  <text
    x="248"
    y="148"
    fill="#0b0f14"
    font-family="Avenir Next, Helvetica Neue, Helvetica, Arial, sans-serif"
    font-size="120"
    font-weight="700"
    letter-spacing="-3"
  >AFI</text>
  <text
    x="252"
    y="196"
    fill="#5b6570"
    font-family="Avenir Next, Helvetica Neue, Helvetica, Arial, sans-serif"
    font-size="26"
    font-weight="600"
    letter-spacing="5.5"
  >AI GATEWAY</text>
</svg>
